<svg height="512pt" viewBox="-5 0 512 512.00123" width="512pt" xmlns="http://www.w3.org/2000/svg"><g fill="#f2d1a5"><path d="m62.746094 365.269531-13.886719-8.691406c-2.542969-1.59375-4.980469-3.316406-7.304687-5.15625-6.96875-5.519531-12.910157-12.101563-17.652344-19.429687-4.785156-7.398438-8.351563-15.554688-10.519532-24.160157-1.609374-6.382812-2.449218-13.007812-2.449218-19.746093v-55.011719c0-24.203125 6.972656-47.898438 20.085937-68.242188 11.496094-17.839843 31.261719-28.617187 52.484375-28.617187h83.371094c21.21875 0 40.988281 10.777344 52.480469 28.617187 13.113281 20.347657 20.085937 44.039063 20.085937 68.246094v55.011719c0 17.398437-5.597656 34.03125-15.558594 47.664062"/><path d="m223.429688 335.753906c9.960937-13.632812 15.558593-30.265625 15.558593-47.664062v-55.011719c0-24.207031-6.972656-47.902344-20.085937-68.246094-11.496094-17.839843-31.261719-28.617187-52.484375-28.617187h-83.371094c-21.21875 0-40.988281 10.777344-52.484375 28.617187-13.109375 20.347657-20.082031 44.039063-20.082031 68.246094v55.011719c0 6.738281.839843 13.363281 2.445312 19.742187l.539063 1.765625c4.976562 16.320313 14.574218 30.847656 27.632812 41.824219 2.324219 1.839844 4.761719 3.5625 7.304688 5.15625l13.886718 8.695313"/><path d="m62.289062 215.949219v283.453125h124.886719"/></g><path d="m187.175781 335.910156v-44.265625l-.242187-8.097656h-124.382813l-.261719 215.855469h124.886719" fill="#919196"/><path d="m131.253906 136.542969h-11.816406c-22.429688 0-40.617188-18.183594-40.617188-40.617188v-46.875c0-22.433593 18.1875-40.617187 40.617188-40.617187h11.816406c22.429688 0 40.613282 18.183594 40.613282 40.617187v46.878907c0 22.429687-18.183594 40.613281-40.613282 40.613281zm0 0" fill="#f2d1a5"/><path d="m124.140625 283.546875h-61.589844v-26.476563 26.476563h-51.808593v-50.199219c0-24.207031 6.972656-47.902344 20.085937-68.246094 11.496094-17.839843 31.261719-28.617187 52.480469-28.617187h82.867187c21.21875 0 40.988281 10.777344 52.480469 28.617187 13.113281 20.347657 20.085938 44.039063 20.085938 68.246094v50.199219h-51.8125v-67.328125 67.328125zm0 0" fill="#ff9f22"/><path d="m127.253906 8.433594h-3.800781c-25.355469-1.246094-44.625 16.835937-44.625 41.480468v10.515626c12.558594 3.421874 27.492187 6.121093 36.242187 2.894531 17.179688-6.332031 31.566407-13.40625 45.378907-10.15625 2.804687.660156 6.84375-.925781 11.410156-3.953125-.375-24.320313-19.453125-42.203125-44.605469-40.78125zm0 0" fill="#915041"/><path d="m463.707031 338.136719h9.40625c9.878907 0 17.882813 8.007812 17.882813 17.882812v125.496094c0 9.878906-8.007813 17.886719-17.882813 17.886719h-361.867187c-9.878906 0-17.886719-8.007813-17.886719-17.886719v-125.492187c0-9.878907 8.007813-17.886719 17.886719-17.886719h187.792968" fill="#f5f0eb"/><path d="m299.039062 338.136719h-31.914062v161.265625h205.847656c9.957032 0 18.023438-8.070313 18.023438-18.023438v-124.871094c0-10.207031-8.273438-18.480468-18.480469-18.480468h-8.808594" fill="#919196"/><path d="m465.320312 356.734375c0 46.363281-37.582031 83.945313-83.945312 83.945313s-83.945312-37.582032-83.945312-83.945313 37.582031-83.949219 83.945312-83.949219 83.945312 37.585938 83.945312 83.949219zm0 0" fill="#5ecef4"/><path d="m193.160156 338.136719h39.496094v33.28125h-39.496094zm0 0" fill="#ff415b"/><path d="m124.730469 338.136719h39.5v33.28125h-39.5zm0 0" fill="#00ee8a"/><path d="m92.25 199.792969h65.832031v40.863281h-65.832031zm0 0" fill="#fff"/><path d="m428.140625 356.734375c0 25.828125-20.9375 46.765625-46.765625 46.765625s-46.765625-20.9375-46.765625-46.765625 20.9375-46.765625 46.765625-46.765625 46.765625 20.9375 46.765625 46.765625zm0 0" fill="#fff"/><path d="m478.5625 330.3125c-1.949219-.417969-3.972656-.640625-6.046875-.640625h-1.359375c-1.710938-4.835937-3.914062-9.582031-6.683594-14.4375-2.871094-5.023437-9.269531-6.769531-14.296875-3.902344-5.023437 2.871094-6.769531 9.269531-3.902343 14.292969 6.167968 10.800781 8.570312 20.117188 8.570312 33.226562 0 40.511719-32.957031 73.46875-73.46875 73.46875s-73.472656-32.957031-73.472656-73.46875c0-40.507812 32.960937-73.46875 73.472656-73.46875 2.238281 0 4.492188.101563 6.703125.300782 5.765625.53125 10.859375-3.726563 11.378906-9.492188.519531-5.761718-3.730469-10.855468-9.492187-11.375-2.835938-.257812-5.726563-.386718-8.59375-.386718-41.921875 0-77.546875 27.46875-89.835938 65.351562h-51.089844c5.921876-12.269531 9.015626-25.699219 9.015626-39.574219v-55.007812c0-26.277344-7.519532-51.835938-21.753907-73.921875-12.375-19.203125-32.6875-31.292969-55.1875-33.15625 6.171875-8.445313 9.824219-18.839844 9.824219-30.074219v-46.875c0-8.070313-1.886719-15.707031-5.234375-22.5-2.695313-5.585937-6.378906-10.636719-10.980469-14.917969-3.789062-3.527344-8.070312-6.40625-12.703125-8.609375-.019531-.007812-.035156-.019531-.054687-.027343-.285156-.136719-.578125-.261719-.867188-.394532-5.195312-2.386718-10.855468-3.925781-16.808594-4.441406-2.855468-.28125-5.765624-.3554688-8.722656-.203125h-3.277344c-2.082031-.0976562-4.144531-.0703125-6.179687.046875-11.019531.410156-21.15625 4.328125-29.332031 10.667969-.03125.023437-.058594.046875-.089844.070312-.558594.4375-1.113281.882813-1.65625 1.34375-.292969.246094-.582031.5-.871094.753907-.269531.242187-.539062.480468-.800781.726562-.21875.199219-.441406.386719-.65625.589844-.230469.21875-.445313.449218-.671875.671875-.078125.078125-.15625.160156-.234375.238281-2.285156 2.289062-4.328125 4.769531-6.109375 7.417969-.039062.054687-.070312.113281-.109375.167969-.386719.582031-.769531 1.167968-1.132813 1.765624-4.757812 7.761719-7.507812 16.878907-7.507812 26.632813v46.875c0 11.195313 3.628906 21.554687 9.757812 29.980469-22.957031 1.539062-43.757812 13.71875-56.34375 33.25-14.234374 22.085937-21.757812 47.648437-21.757812 73.921875v55.007812c0 7.519531.929688 15.023438 2.765625 22.304688.042969.167969.089844.332031.140625.496093l.539062 1.765626c5.578126 18.300781 16.269532 34.480468 30.914063 46.789062.074219.066406.15625.128906.238281.195312 2.628906 2.082032 5.40625 4.042969 8.246094 5.820313l9.125 5.714844-.15625 128.21875c0 2.78125 1.101562 5.449219 3.066406 7.417969 1.964844 1.964843 4.632813 3.070312 7.414063 3.070312h410.824219c15.636718 0 28.359374-12.722656 28.359374-28.359375v-125.5c0-13.773437-9.875-25.28125-22.914062-27.828125zm-416.011719-81.601562c-5.785156 0-10.476562 4.691406-10.476562 10.480468v15.996094h-30.855469v-39.722656c0-22.238282 6.367188-43.875 18.414062-62.570313 9.609376-14.910156 25.9375-23.8125 43.675782-23.8125h31.558594v42.355469h-22.617188c-5.789062 0-10.480469 4.6875-10.480469 10.476562v40.859376c0 5.789062 4.691407 10.480468 10.480469 10.480468h65.832031c5.785157 0 10.476563-4.691406 10.476563-10.480468v-40.859376c0-5.789062-4.691406-10.476562-10.476563-10.476562h-22.261719v-42.355469h30.355469c17.738281 0 34.066407 8.902344 43.675781 23.8125 12.046876 18.695313 18.414063 40.332031 18.414063 62.570313v39.722656h-30.855469v-56.847656c0-5.789063-4.691406-10.480469-10.476562-10.480469-5.789063 0-10.480469 4.691406-10.480469 10.480469v56.847656h-103.421875v-15.996094c0-5.789062-4.691406-10.480468-10.480469-10.480468zm26.75-150.664063v-22.332031c5.894531 1.09375 11.175781 1.652344 15.832031 1.652344 5.273438 0 9.777344-.699219 13.558594-2.089844 2.667969-.984375 5.265625-1.984375 7.804688-2.960938 12.335937-4.746094 22.992187-8.84375 31.554687-6.828125 1.085938.253907 2.199219.394531 3.339844.421875v32.136719c0 15.117187-11.1875 27.667969-25.714844 29.8125h-20.664062c-14.527344-2.148437-25.710938-14.695313-25.710938-29.8125zm58.300781 114.34375v19.90625h-44.875v-19.90625zm80.65625 83.753906c-1.003906 12.074219-5.078124 23.5625-11.941406 33.636719h-18.664062v-33.636719zm-24.617187 54.589844h18.539063v12.328125h-18.539063zm-76.386719-329.703125h3.996094c.71875 0 1.429688.035156 2.132812.082031 4.167969.386719 8.089844 1.488281 11.613282 3.25 5.292968 2.722657 9.675781 6.960938 12.574218 12.144531 1.359376 2.507813 2.382813 5.230469 3.019532 8.117188-14.035156-2.480469-27.449219 2.6875-41.617188 8.136719-2.449218.941406-4.957031 1.90625-7.527344 2.851562-1.566406.578125-7.386718 1.964844-22.140624-1.265625v-2.3125c0-6.660156 1.847656-12.835937 5.289062-17.902344.003906-.011718.011719-.019531.019531-.027343.242188-.355469.496094-.707031.753907-1.050781.222656-.300782.457031-.59375.695312-.882813.054688-.066406.105469-.136719.160156-.203125.261719-.3125.53125-.621094.804688-.925781.054687-.0625.109375-.125.164062-.183594.234375-.257813.476563-.503906.71875-.753906.140625-.140625.28125-.285157.421875-.425781.144531-.140626.292969-.28125.441407-.417969 5.257812-4.90625 12.238281-7.75 19.980468-8.214844.226563-.003906.453125-.015625.683594-.015625zm-79.53125 324.390625c-11.476562-9.683594-19.855468-22.394531-24.238281-36.761719l-.457031-1.507812c-.898438-3.613282-1.5-7.296875-1.816406-11.007813h30.851562l-.0625 52.367188c-1.460938-.984375-2.898438-2.003907-4.277344-3.089844zm25.296875-49.277344h103.679688v33.636719h-65.453125c-15.640625 0-28.363282 12.722656-28.363282 28.359375v125.496094c0 2.5625.347657 5.046875.988282 7.410156h-11.089844zm62.191407 54.589844h18.542968v12.328125h-18.542968zm-31.375 132.902344v-125.496094c0-4.082031 3.324218-7.40625 7.410156-7.40625h3.007812v22.804687c0 5.789063 4.691406 10.476563 10.476563 10.476563h39.5c5.785156 0 10.476562-4.6875 10.476562-10.476563v-22.804687h7.976563v22.804687c0 5.789063 4.691406 10.476563 10.476562 10.476563h39.496094c5.785156 0 10.476562-4.6875 10.476562-10.476563v-22.804687h13.511719v140.3125h-28.449219v-19.105469c0-5.789062-4.691406-10.480468-10.476562-10.480468s-10.480469 4.691406-10.480469 10.480468v19.105469h-18.539062v-19.105469c0-5.789062-4.695313-10.480468-10.480469-10.480468s-10.476562 4.691406-10.476562 10.480468v19.105469h-18.542969v-19.105469c0-5.789062-4.691407-10.480468-10.476563-10.480468s-10.476562 4.691406-10.476562 10.480468v19.105469h-17.003906c-4.082032 0-7.40625-3.324219-7.40625-7.410156zm173.765624 7.410156v-140.3125h9.699219c-.226562 2.675781-.351562 5.382813-.351562 8.117187 0 52.066407 42.359375 94.425782 94.425781 94.425782s94.421875-42.359375 94.421875-94.425782c0-2.628906-.09375-5.164062-.265625-7.632812 2.921875 1.195312 4.988281 4.0625 4.988281 7.410156v124.871094c0 4.160156-3.382812 7.546875-7.546875 7.546875zm0 0"/><path d="m305.105469 461.460938h-7.679688c-5.785156 0-10.476562 4.691406-10.476562 10.480468 0 5.785156 4.691406 10.476563 10.476562 10.476563h7.679688c5.785156 0 10.480469-4.691407 10.480469-10.476563 0-5.789062-4.691407-10.480468-10.480469-10.480468zm0 0"/><path d="m461.21875 461.460938h-7.679688c-5.785156 0-10.476562 4.691406-10.476562 10.480468 0 5.785156 4.691406 10.476563 10.476562 10.476563h7.679688c5.785156 0 10.476562-4.691407 10.476562-10.476563 0-5.789062-4.691406-10.480468-10.476562-10.480468zm0 0"/><path d="m421.542969 298.449219.269531.203125c1.894531 1.433594 4.117188 2.125 6.320312 2.125 3.167969 0 6.296876-1.429688 8.359376-4.148438 3.492187-4.613281 2.589843-11.183594-2.023438-14.679687l-.269531-.203125c-4.613281-3.492188-11.183594-2.585938-14.679688 2.023437-3.492187 4.613281-2.585937 11.183594 2.023438 14.679688zm0 0"/><path d="m381.375 301.609375c-31.566406 0-57.246094 25.679687-57.246094 57.242187s25.679688 57.246094 57.246094 57.246094c31.5625 0 57.242188-25.679687 57.242188-57.246094 0-31.5625-25.679688-57.242187-57.242188-57.242187zm0 93.53125c-20.011719 0-36.289062-16.277344-36.289062-36.289063 0-20.007812 16.277343-36.285156 36.289062-36.285156 20.007812 0 36.289062 16.277344 36.289062 36.285156 0 20.011719-16.28125 36.289063-36.289062 36.289063zm0 0"/><path d="m69.5 210.003906-.265625-.203125c-4.613281-3.492187-11.1875-2.585937-14.679687 2.027344-3.496094 4.609375-2.589844 11.183594 2.023437 14.675781l.269531.203125c1.890625 1.4375 4.113282 2.128907 6.316406 2.128907 3.167969 0 6.300782-1.429688 8.359376-4.148438 3.496093-4.617188 2.589843-11.1875-2.023438-14.683594zm0 0"/></svg>