<?xml version="1.0" encoding="iso-8859-1"?>
<!-- Generator: Adobe Illustrator 19.0.0, SVG Export Plug-In . SVG Version: 6.00 Build 0)  -->
<svg version="1.1" id="Capa_1" xmlns="http://www.w3.org/2000/svg" xmlns:xlink="http://www.w3.org/1999/xlink" x="0px" y="0px"
	 viewBox="0 0 512.431 512.431" style="enable-background:new 0 0 512.431 512.431;" xml:space="preserve">
<path style="fill:#415A6B;" d="M168.713,214.831l13.867,117.333L14.047,343.898L0.18,227.631c-1.067-5.333,3.2-10.667,8.533-10.667
	l149.333-10.667C163.38,205.231,167.647,209.498,168.713,214.831z"/>
<polygon style="fill:#55C0EB;" points="22.58,333.231 10.847,227.631 158.047,215.898 170.847,321.498 "/>
<g>
	<path style="fill:#E8EAE9;" d="M133.513,291.631c-1.067-9.6,5.333-18.133,14.933-19.2c9.6-1.067,18.133,6.4,19.2,16
		c1.067,9.6-5.333,18.133-14.933,19.2C143.113,308.698,134.58,302.298,133.513,291.631z"/>
	<polygon style="fill:#E8EAE9;" points="94.047,318.298 130.313,302.298 166.58,289.498 170.847,321.498 22.58,333.231 
		19.38,300.164 65.247,308.698 	"/>
	<path style="fill:#E8EAE9;" d="M115.38,299.098c-1.067-7.467,4.267-13.867,11.733-14.933c7.467-1.067,13.867,5.333,14.933,12.8
		c1.067,7.467-4.267,13.867-11.733,14.933C122.847,311.898,116.447,306.564,115.38,299.098z"/>
	<path style="fill:#E8EAE9;" d="M105.78,307.631c-1.067-5.333,3.2-10.667,8.533-10.667c5.333,0,10.667,4.267,10.667,9.6
		c1.067,5.333-3.2,10.667-8.533,10.667C111.113,317.231,106.847,312.964,105.78,307.631z"/>
	<path style="fill:#E8EAE9;" d="M98.313,317.231c-1.067-5.333,3.2-9.6,7.467-9.6c5.333,0,9.6,3.2,9.6,8.533
		c0,5.333-3.2,9.6-7.467,9.6C103.647,326.831,99.38,322.564,98.313,317.231z"/>
</g>
<g>
	<path style="fill:#CED6E0;" d="M146.313,307.631c0,0,0,0-1.067,0c0,0,0,0-1.067,0c0,0,0,0-1.067,0c0,0,0,0-1.067,0h-1.067h-1.067
		c0,0-1.067,0-1.067-1.067c-1.067,0-1.067-1.067-2.133-1.067c-1.067-1.067-1.067-1.067-2.133-2.133
		c-1.067-1.067-1.067-1.067-1.067-2.133s-1.067-2.133-1.067-2.133c0-1.067,0-2.133-1.067-2.133c0-1.067,0-2.133,0-2.133v-1.067
		v-1.067v-1.067v-1.067c0,0,0,0,0-1.067c0,0,0,0,0-1.067s0-1.067,0-1.067s0,0,0,1.067c0,0,0,0,0,1.067c0,0,0,0,0,1.067
		c0,0,0,1.067,0,2.133v1.067v1.067v1.067v1.067c0,1.067,0,1.067,1.067,2.133c0,1.067,1.067,1.067,1.067,2.133
		s1.067,1.067,1.067,2.133c0,1.067,1.067,1.067,1.067,2.133l1.067,1.067c0,0,0,0,1.067,1.067c0,0,0,0,1.067,1.067
		c0,0,0,0,1.067,1.067l1.067,1.067c0,0,0,0,1.067,0C144.18,306.564,144.18,306.564,146.313,307.631
		C145.247,307.631,146.313,307.631,146.313,307.631z"/>
	<path style="fill:#CED6E0;" d="M128.18,310.831C128.18,310.831,127.113,310.831,128.18,310.831c-1.067,0-1.067,0-1.067,0
		s0,0-1.067,0h-1.067c0,0,0,0-1.067,0c0,0,0,0-1.067,0c-1.067,0-1.067-1.067-2.133-1.067s-1.067-1.067-2.133-1.067
		s-1.067-1.067-1.067-1.067c0-1.067-1.067-1.067-1.067-2.133c0-1.067-1.067-1.067-1.067-2.133c0-1.067,0-1.067-1.067-2.133v-1.067
		v-1.067v-1.067c0,0,0,0,0-1.067l0,0c0-1.067,0-1.067,0-1.067s0,0,0,1.067l0,0c0,0,0,0,0,1.067v1.067c0,0,0,0,0,1.067
		c0,0,0,0,0,1.067c0,0,0,1.067,1.067,1.067l1.067,1.067l1.067,1.067l1.067,1.067l1.067,1.067l1.067,1.067c0,0,0,0,1.067,0
		c0,0,0,0,1.067,0c0,0,1.067,0,1.067,1.067l0,0C127.113,310.831,127.113,310.831,128.18,310.831
		C127.113,310.831,128.18,310.831,128.18,310.831z"/>
</g>
<g>
	<path style="fill:#E8EAE9;" d="M52.447,298.031c-1.067-9.6-9.6-17.067-19.2-16c-9.6,1.067-16,9.6-14.933,19.2
		c1.067,9.6,9.6,17.067,19.2,16C47.113,316.164,53.513,307.631,52.447,298.031z"/>
	<path style="fill:#E8EAE9;" d="M71.647,302.298c-1.067-7.467-7.467-13.867-14.933-12.8c-7.467,0-11.733,7.467-11.733,14.933
		c1.067,7.467,7.467,12.8,14.933,12.8C67.38,316.164,71.647,309.764,71.647,302.298z"/>
	<path style="fill:#E8EAE9;" d="M82.313,309.764c-1.067-5.333-5.333-9.6-10.667-9.6s-9.6,5.333-8.533,10.667
		c1.067,5.333,5.333,9.6,10.667,9.6S83.38,315.098,82.313,309.764z"/>
	<path style="fill:#E8EAE9;" d="M92.98,318.298c-1.067-5.333-5.333-9.6-9.6-8.533c-4.267,1.067-9.6,4.267-8.533,9.6
		s5.333,9.6,9.6,8.533C89.78,327.898,92.98,323.631,92.98,318.298z"/>
</g>
<g>
	<path style="fill:#CED6E0;" d="M43.913,315.098L43.913,315.098c1.067-1.067,1.067-1.067,1.067-1.067l0,0l1.067-1.067
		c0,0,0,0,1.067-1.067c0,0,0,0,1.067-1.067c0,0,0-1.067,1.067-1.067c0,0,0-1.067,1.067-1.067c0-1.067,1.067-1.067,1.067-2.133
		c0-1.067,1.067-1.067,1.067-2.133c0-1.067,0-1.067,0-2.133s0-1.067,0-2.133v-1.067v-1.067v-1.067v-1.067c0-1.067,0-1.067,0-2.133
		c0,0,0,0,0-1.067c0,0,0,0,0-1.067c0-1.067,0-1.067,0-1.067s0,0,1.067,1.067c0,0,0,0,0,1.067c0,0,0,0,0,1.067c0,0,0,0,0,1.067v1.067
		v1.067v1.067c0,1.067,0,1.067,0,2.133c0,1.067,0,2.133,0,2.133c0,1.067,0,2.133,0,2.133c0,1.067-1.067,2.133-1.067,2.133
		c0,1.067-1.067,1.067-1.067,2.133s-1.067,1.067-1.067,2.133c0,0,0,0-1.067,1.067c0,0-1.067,0-1.067,1.067c0,0,0,0-1.067,0
		c0,0,0,0-1.067,0c0,0,0,0-1.067,0c0,0,0,0-1.067,0C43.913,315.098,43.913,315.098,43.913,315.098z"/>
	<path style="fill:#CED6E0;" d="M62.047,316.164L62.047,316.164c1.067,0,1.067-1.067,1.067-1.067l0,0c0,0,1.067,0,1.067-1.067
		c0,0,0,0,1.067,0c0,0,0,0,1.067,0l1.067-1.067l1.067-1.067l1.067-1.067c0-1.067,0-1.067,1.067-2.133c0-1.067,0-1.067,1.067-2.133
		c0-1.067,0-1.067,0-2.133c0,0,0,0,0-1.067c0,0,0,0,0-1.067v-1.067c0,0,0,0,0-1.067l0,0c0-1.067,0-1.067,0-1.067s0,0,0,1.067l0,0
		c0,0,0,0,0,1.067v1.067v1.067v1.067c0,1.067,0,1.067,0,2.133c0,1.067,0,1.067,0,2.133s0,1.067-1.067,2.133
		c0,1.067-1.067,1.067-1.067,2.133c0,1.067-1.067,1.067-1.067,1.067l-1.067,1.067c0,0,0,0-1.067,0c0,0,0,0-1.067,0H64.18
		c0,0,0,0-1.067,0C63.113,316.164,63.113,316.164,62.047,316.164L62.047,316.164z"/>
</g>
<polygon style="fill:#E8EAE9;" points="94.047,231.898 76.98,232.964 86.58,318.298 104.713,317.231 "/>
<polygon style="fill:#CED6E0;" points="89.78,232.964 81.247,232.964 91.913,318.298 99.38,317.231 "/>
<g>
	<path style="fill:#FFD15C;" d="M57.78,250.031c0,1.067,0,1.067,0,2.133l1.067,1.067c2.133,1.067,2.133,4.267,2.133,6.4
		c0,1.067-1.067,1.067-1.067,2.133s-1.067,2.133-1.067,3.2c0,1.067,0,2.133,1.067,3.2c-1.067,0-1.067,0-2.133-1.067
		s-1.067-1.067-1.067-2.133c0-2.133,0-4.267,0-5.333c-1.067,1.067-1.067,3.2-1.067,5.333c0,1.067,0,2.133,0,2.133
		c0,1.067,1.067,1.067,1.067,2.133c1.067,2.133,1.067,4.267,0,6.4c0,1.067-1.067,1.067-1.067,2.133s-1.067,1.067-1.067,2.133
		c-1.067-2.133-2.133-4.267-2.133-6.4s0-3.2,0-5.333c0-2.133-1.067-3.2-2.133-4.267c-1.067-1.067-1.067-3.2-1.067-4.267
		c-1.067,2.133-1.067,5.333,1.067,7.467c-1.067,0-3.2-1.067-4.267-2.133c0-1.067-1.067-1.067-1.067-2.133c0-2.133-1.067-4.267,0-6.4
		c0-1.067,1.067-2.133,2.133-3.2c4.267-2.133,5.333-4.267,6.4-7.467c1.067,1.067,2.133,2.133,3.2,3.2"/>
	<path style="fill:#FFD15C;" d="M124.98,245.764c0,1.067,0,1.067,0,2.133l1.067,1.067c2.133,1.067,2.133,4.267,2.133,6.4
		c0,1.067-1.067,1.067-1.067,2.133s-1.067,2.133-1.067,3.2c0,1.067,0,2.133,1.067,3.2c-1.067,0-1.067,0-2.133-1.067
		c0-1.067-1.067-1.067-1.067-2.133c0-2.133,0-4.267,0-5.333c-1.067,1.067-1.067,3.2-1.067,5.333c0,1.067,0,2.133,0,2.133
		c0,1.067,1.067,1.067,1.067,2.133c1.067,2.133,1.067,4.267,0,6.4c0,1.067-1.067,1.067-1.067,2.133s-1.067,1.067-1.067,2.133
		c-1.067-2.133-2.133-4.267-2.133-6.4s0-3.2,0-5.333c0-2.133-1.067-3.2-2.133-4.267c-1.067-1.067-1.067-3.2-1.067-4.267
		c-1.067,2.133-1.067,5.333,1.067,7.467c-1.067,0-3.2-1.067-4.267-2.133c0-1.067-1.067-1.067-1.067-2.133c0-2.133-1.067-4.267,0-6.4
		c0-1.067,1.067-2.133,2.133-3.2c2.133-2.133,3.2-4.267,3.2-7.467c1.067,1.067,2.133,2.133,3.2,3.2"/>
</g>
<polygon style="fill:#ADB3BA;" points="75.913,203.098 51.38,227.631 52.447,240.431 80.18,238.298 "/>
<path style="fill:#E8EAE9;" d="M43.913,238.298l2.133,14.933l16-1.067l-2.133-14.933c-1.067-7.467-4.267-14.933-10.667-20.267l0,0
	l0,0C44.98,222.298,42.847,229.764,43.913,238.298z"/>
<polygon style="fill:#F3705A;" points="44.98,247.898 46.047,253.231 62.047,252.164 62.047,246.831 "/>
<polygon style="fill:#ADB3BA;" points="88.713,202.031 118.58,222.298 119.647,235.098 92.98,237.231 "/>
<path style="fill:#E8EAE9;" d="M127.113,231.898l2.133,14.933l-16,1.067l-2.133-14.933c-1.067-7.467,1.067-14.933,5.333-21.333l0,0
	l0,0C122.847,216.964,127.113,224.431,127.113,231.898z"/>
<polygon style="fill:#F3705A;" points="129.247,242.564 129.247,246.831 113.247,247.898 112.18,243.631 "/>
<path style="fill:#E8EAE9;" d="M60.98,175.364c0,4.267,0,8.533,0,12.8l6.4,54.4l38.4-3.2l-6.4-54.4c0-4.267-1.067-8.533-2.133-12.8
	L60.98,175.364z"/>
<polygon style="fill:#F3705A;" points="111.113,246.831 105.78,239.364 67.38,242.564 64.18,250.031 "/>
<path style="fill:#415A6B;" d="M60.98,170.031c0,2.133,0,4.267-1.067,7.467l37.333-3.2c-1.067-2.133-1.067-4.267-2.133-7.467
	L60.98,170.031z"/>
<path style="fill:#F3705A;" d="M96.18,168.964c-4.267-11.733-11.733-23.467-21.333-32l0,0c-7.467,9.6-12.8,21.333-13.867,34.133
	L96.18,168.964z"/>
<path style="fill:#415A6B;" d="M94.047,195.631c1.067,7.467-4.267,13.867-10.667,13.867c-6.4,0-12.8-5.333-13.867-11.733
	s4.267-13.867,10.667-13.867C86.58,182.831,92.98,188.164,94.047,195.631z"/>
<path style="fill:#55C0EB;" d="M89.78,195.631c1.067,5.333-3.2,9.6-7.467,9.6c-5.333,0-9.6-3.2-9.6-8.533
	c-1.067-5.333,3.2-9.6,7.467-9.6C85.513,187.098,89.78,190.298,89.78,195.631z"/>
<path style="fill:#E8EAE9;" d="M100.447,318.298c0,3.2-2.133,5.333-4.267,6.4c-2.133,1.067-5.333-2.133-6.4-5.333
	c0-3.2,2.133-5.333,4.267-6.4C98.313,312.964,100.447,315.098,100.447,318.298z"/>
<path style="fill:#344A5E;" d="M195.38,417.498l-28.8,1.067c0,0-5.333-11.733-8.533-14.933c-3.2-3.2,0-42.667,5.333-46.933
	c8.533,4.267,14.933,9.6,19.2,19.2L195.38,417.498z"/>
<path style="fill:#FFD15C;" d="M175.113,367.364l-23.467-10.667l-74.667,3.2c0,0,22.4,6.4,33.067,10.667
	c9.6,4.267,26.667,8.533,36.267,13.867c8.533,5.333,24.533,12.8,28.8,13.867V367.364z"/>
<path style="fill:#F3F3F3;" d="M163.38,399.364c0,0,14.933-24.533-3.2-39.467l37.333,7.467l-6.4,43.733L163.38,399.364z"/>
<path style="fill:#415A6B;" d="M162.313,357.764c0,0,13.867,6.4,11.733,35.2c-2.133,28.8-8.533,26.667-8.533,26.667
	s0,1.067,10.667,2.133c11.733,1.067,19.2,2.133,27.733,4.267c7.467,2.133,58.667,5.333,58.667,5.333l19.2-66.133
	c0,0-22.4,5.333-30.933,5.333c-8.533,0-38.4-2.133-50.133-4.267C188.98,364.164,166.58,357.764,162.313,357.764z"/>
<path style="fill:#FFD15C;" d="M417.247,111.364c0,0,2.133,29.867,6.4,41.6c4.267,11.733,4.267,11.733,4.267,11.733l-81.067,57.6
	l-3.2-56.533c0,0-19.2,0-27.733-24.533c-8.533-24.533-13.867-34.133-11.733-46.933c0,0,0-4.267-1.067-6.4
	c-1.067-2.133-3.2-24.533,3.2-40.533c0,0,1.067-16,7.467-25.6s71.467-7.467,86.4,0S419.38,96.431,417.247,111.364z"/>
<path style="fill:#415A6B;" d="M305.247,47.364c0,0,3.2-16,9.6-13.867c6.4,2.133,13.867,2.133,21.333-1.067
	s45.867-4.267,45.867,11.733s10.667,43.733,9.6,52.267h4.267c0,0,0-14.933,4.267-21.333c4.267-6.4,16,9.6,18.133,36.267
	c0,0,4.267-28.8,6.4-37.333s7.467-46.933-20.267-62.933c-28.8-16-74.667-13.867-91.733,1.067
	C297.78,26.031,305.247,47.364,305.247,47.364z"/>
<ellipse style="fill:#FFD15C;" cx="406.58" cy="87.898" rx="10.667" ry="20.267"/>
<path style="fill:#F7B64C;" d="M399.113,118.831c-16,26.667-34.133,44.8-56.533,46.933l2.133,36.267
	C392.713,170.031,399.113,118.831,399.113,118.831z"/>
<polygon style="fill:#CED6E0;" points="355.38,188.164 385.247,190.298 370.313,253.231 288.18,347.098 318.047,224.431 "/>
<path style="fill:#F3705A;" d="M341.513,205.231l4.267,3.2c0,0-6.4,40.533-10.667,52.267c-3.2,11.733-39.467,53.333-39.467,53.333
	s16-78.933,36.267-107.733C335.113,202.031,341.513,205.231,341.513,205.231z"/>
<path style="fill:#F05540;" d="M344.713,188.164c1.067-1.067,6.4-1.067,10.667,0c4.267,2.133,5.333,0,5.333,0l7.467,4.267
	c0,0-10.667,13.867-21.333,14.933c0,0-9.6-2.133-13.867-2.133L344.713,188.164z"/>
<path style="fill:#F3F3F3;" d="M355.38,188.164l23.467,29.867l55.467-44.8l-10.667-25.6c0-1.067-2.133-1.067-2.133-1.067
	c-4.267,3.2-16,10.667-28.8,16C376.713,168.964,355.38,188.164,355.38,188.164z"/>
<path style="fill:#415A6B;" d="M278.58,384.431c0,0,17.067-82.133,29.867-119.467s36.267-76.8,36.267-76.8s-12.8,10.667-26.667,28.8
	s-28.8,59.733-35.2,77.867C277.513,311.898,266.847,368.431,278.58,384.431z"/>
<path style="fill:#344A5E;" d="M437.513,174.298l3.2,2.133c0,0,42.667,26.667,57.6,54.4c13.867,27.733,16,49.067,12.8,64
	c-3.2,14.933-35.2,105.6-38.4,156.8v60.8H250.847c0,0,2.133-76.8,13.867-118.4c11.733-41.6,29.867-100.267,62.933-125.867
	S437.513,174.298,437.513,174.298z"/>
<path style="fill:#415A6B;" d="M431.113,162.564c0,0-48,38.4-67.2,54.4s-56.533,62.933-67.2,80c-10.667,17.067-29.867,80-32,96
	c0,0,17.067-56.533,42.667-86.4c25.6-29.867,115.2-104.533,115.2-104.533l-6.4,1.067c7.467-8.533,14.933-16,23.467-20.267
	c3.2-1.067,3.2-5.333,1.067-7.467C436.447,170.031,432.18,163.631,431.113,162.564z"/>
<path style="fill:#CED6E0;" d="M247.647,355.631l-162.133,8.533c-1.067,0-2.133,0-3.2,0l-69.333-19.2l169.6-12.8l65.067,19.2
	C250.847,351.364,250.847,355.631,247.647,355.631z"/>
<path style="fill:#E8EAE9;" d="M14.047,344.964l69.333,19.2c1.067,0,2.133,0,3.2,0l162.133-9.6v8.533l-163.2,10.667
	c-1.067,0-2.133,0-3.2,0l-65.067-22.4C15.113,349.231,14.047,347.098,14.047,344.964L14.047,344.964z"/>
<path style="fill:#FFD15C;" d="M298.847,333.231l-2.133-6.4c0,0-5.333,0-10.667-3.2c-5.333-3.2-13.867-18.133-17.067-22.4
	c-3.2-5.333-10.667-16-12.8-21.333c-2.133-4.267-4.267-11.733-4.267-11.733l1.067-11.733c0,0-17.067-5.333-10.667,25.6
	c0,0,5.333,9.6,5.333,12.8c0,3.2-1.067,7.467-3.2,7.467c-2.133,1.067-20.267,4.267-24.533,6.4
	c-4.267,2.133-14.933,13.867-5.333,18.133c0,0-7.467,11.733,2.133,17.067c0,0-2.133,9.6,4.267,10.667c0,0-5.333,4.267-2.133,9.6
	c3.2,5.333,11.733,0,13.867,1.067c2.133,0,23.467,2.133,28.8,0c5.333-1.067,22.4,2.133,22.4,2.133L298.847,333.231z"/>
<path style="fill:#415A6B;" d="M399.113,309.764c0,0-3.2-37.333,12.8-66.133s35.2-38.4,55.467-34.133s36.267,44.8,40.533,60.8
	c4.267,16-9.6,72.533-13.867,88.533c-3.2,16-16,59.733-29.867,80c-13.867,20.267-21.333,24.533-39.467,18.133
	c-17.067-6.4-85.333-29.867-104.533-40.533c-18.133-10.667-51.2-28.8-51.2-28.8s12.8-61.867,23.467-67.2
	c0,0,37.333,21.333,50.133,26.667c12.8,5.333,18.133,5.333,27.733,10.667c10.667,5.333,32,10.667,32,10.667s-5.333-7.467-3.2-13.867
	c2.133-6.4,3.2-13.867,3.2-19.2C402.313,330.031,399.113,309.764,399.113,309.764z"/>
<path style="fill:#E8EAE9;" d="M252.98,269.231c-7.467-1.067,1.067-11.733,1.067-11.733L252.98,269.231z"/>
<g>
</g>
<g>
</g>
<g>
</g>
<g>
</g>
<g>
</g>
<g>
</g>
<g>
</g>
<g>
</g>
<g>
</g>
<g>
</g>
<g>
</g>
<g>
</g>
<g>
</g>
<g>
</g>
<g>
</g>
</svg>
