<svg height="512" viewBox="0 0 58 58" width="512" xmlns="http://www.w3.org/2000/svg"><g id="Page-1" fill="none" fill-rule="evenodd"><g id="046---Important-Message" fill-rule="nonzero"><path id="Shape" d="m47 3v23.8l-20.5 11.2h-4.08l-3.11 2-10.61 6.82c-.33788826.2198957-.7689952.2373412-1.12354651.0454664-.35455131-.1918749-.57573762-.5623261-.57645349-.9654664v-7.9h-4c-1.65685425 0-3-1.3431458-3-3v-32c0-1.65685425 1.34314575-3 3-3h41c1.6568542 0 3 1.34314575 3 3z" fill="#f0c419"/><path id="Shape" d="m13 39c0 .5522847-.4477153 1-1 1h-5v-2h5c.5522847 0 1 .4477153 1 1z" fill="#f29c1f"/><path id="Shape" d="m22.42 38-3.11 2h-3.31c-.5522847 0-1-.4477153-1-1s.4477153-1 1-1z" fill="#f29c1f"/><circle id="Oval" cx="42" cy="42" fill="#3b97d3" r="16"/><path id="Shape" d="m30.686 39c-.324835.0001387-.629498-.1575111-.8170045-.4227641-.1875064-.265253-.2344904-.6050551-.1259955-.9112359 1.0375656-2.9166935 3.0779988-5.3696792 5.757-6.921.4759933-.2561528 1.0693836-.0876904 1.3397768.3803603s.1199053 1.0662521-.3397768 1.3506397c-2.2680581 1.3127513-3.9955787 3.3890368-4.874 5.858-.1411404.3983133-.5174211.6649122-.94.666z" fill="#9fc9d3"/><g fill="#547580"><path id="Shape" d="m42 7h-37c-.55228475 0-1-.44771525-1-1s.44771525-1 1-1h37c.5522847 0 1 .44771525 1 1s-.4477153 1-1 1z"/><path id="Shape" d="m42 12h-31c-.5522847 0-1-.4477153-1-1s.4477153-1 1-1h31c.5522847 0 1 .4477153 1 1s-.4477153 1-1 1z"/><path id="Shape" d="m7 12h-2c-.55228475 0-1-.4477153-1-1s.44771525-1 1-1h2c.55228475 0 1 .4477153 1 1s-.44771525 1-1 1z"/><path id="Shape" d="m42 17h-4c-.5522847 0-1-.4477153-1-1s.4477153-1 1-1h4c.5522847 0 1 .4477153 1 1s-.4477153 1-1 1z"/><path id="Shape" d="m34 17h-29c-.55228475 0-1-.4477153-1-1s.44771525-1 1-1h29c.5522847 0 1 .4477153 1 1s-.4477153 1-1 1z"/><path id="Shape" d="m42 22h-26c-.5522847 0-1-.4477153-1-1s.4477153-1 1-1h26c.5522847 0 1 .4477153 1 1s-.4477153 1-1 1z"/><path id="Shape" d="m12 22h-7c-.55228475 0-1-.4477153-1-1s.44771525-1 1-1h7c.5522847 0 1 .4477153 1 1s-.4477153 1-1 1z"/><path id="Shape" d="m29 27h-5c-.5522847 0-1-.4477153-1-1s.4477153-1 1-1h5c.5522847 0 1 .4477153 1 1s-.4477153 1-1 1z"/><path id="Shape" d="m19 27h-14c-.55228475 0-1-.4477153-1-1s.44771525-1 1-1h14c.5522847 0 1 .4477153 1 1s-.4477153 1-1 1z"/><path id="Shape" d="m22 32h-17c-.55228475 0-1-.4477153-1-1s.44771525-1 1-1h17c.5522847 0 1 .4477153 1 1s-.4477153 1-1 1z"/></g><circle id="Oval" cx="42" cy="51" fill="#ecf0f1" r="2"/><rect id="Rectangle-path" fill="#ecf0f1" height="14" rx="2" width="4" x="40" y="31"/><circle id="Oval" cx="30" cy="42" fill="#9fc9d3" r="1"/></g></g></svg>