<?xml version="1.0" encoding="UTF-8"?>
<svg width="302px" height="339px" viewBox="0 0 302 339" version="1.1" xmlns="http://www.w3.org/2000/svg" xmlns:xlink="http://www.w3.org/1999/xlink">
    <!-- Generator: Sketch 51.2 (57519) - http://www.bohemiancoding.com/sketch -->
    <title>Group 276</title>
    <desc>Created with Sketch.</desc>
    <defs>
        <polygon id="path-1" points="0.1738 0 1.1738 0 1.1738 73.0589 0.1738 73.0589"></polygon>
    </defs>
    <g id="Web-page" stroke="none" stroke-width="1" fill="none" fill-rule="evenodd">
        <g id="Group-276">
            <path d="M173.8164,258.7597 C173.8164,262.7077 164.9234,265.9087 153.9544,265.9087 C142.9844,265.9087 134.0914,262.7077 134.0914,258.7597 C134.0914,254.8117 142.9844,251.6107 153.9544,251.6107 C164.9234,251.6107 173.8164,254.8117 173.8164,258.7597" id="Fill-4" fill="#161642"></path>
            <path d="M145.4346,221.019 C136.4906,204.806 147.2136,180.88 152.2626,179.85 L160.6726,183.415 C160.6726,183.415 143.2176,195.623 150.2156,218.18" id="Fill-6" fill="#2F9164"></path>
            <path d="M150.5537,219.3808 C149.4717,210.9338 150.9157,203.7318 150.9157,203.7318 C150.9157,203.7318 154.4227,186.2568 161.0667,183.6328 L155.1107,181.0578 C155.1107,181.0578 141.4327,197.6248 146.3587,221.0118" id="Fill-8" fill="#36B37E"></path>
            <path d="M142.9326,221.8852 C142.5736,220.7832 143.3196,219.5532 144.6006,219.1362 L149.0796,217.6752 C150.3606,217.2582 151.6666,217.1932 152.0246,218.2952 L152.9366,221.6382 C153.2956,222.7392 152.5496,223.9702 151.2686,224.3882 L146.7876,225.8482 C145.5086,226.2652 144.1796,225.7102 143.8196,224.6092 L142.9326,221.8852 Z" id="Fill-10" fill="#FDC58A"></path>
            <path d="M150.8643,223.2773 C150.7373,222.5163 151.1963,221.8063 151.8893,221.6913 C152.5803,221.5753 153.2453,222.0993 153.3723,222.8613 L153.8203,225.5483 C153.9473,226.3123 153.4893,227.0223 152.7973,227.1393 C152.1043,227.2533 151.4403,226.7303 151.3133,225.9673 L150.8643,223.2773 Z" id="Fill-12" fill="#FDC58A"></path>
            <path d="M146.0996,224.8661 C145.9736,224.1051 146.4316,223.3941 147.1246,223.2791 C147.8166,223.1631 148.4806,223.6871 148.6076,224.4491 L149.0566,227.1381 C149.1826,227.8981 148.7246,228.6111 148.0326,228.7251 C147.3396,228.8411 146.6756,228.3181 146.5486,227.5561 L146.0996,224.8661 Z" id="Fill-14" fill="#FDC58A"></path>
            <path d="M148.541,224.6933 C148.414,223.9313 148.872,223.2193 149.564,223.1053 C150.258,222.9883 150.922,223.5123 151.048,224.2733 L151.498,226.9643 C151.624,227.7253 151.166,228.4373 150.472,228.5513 C149.78,228.6673 149.116,228.1433 148.989,227.3813 L148.541,224.6933 Z" id="Fill-16" fill="#FDC58A"></path>
            <path d="M144.0142,223.7895 C144.1352,223.0265 144.7962,222.4985 145.4892,222.6105 C146.1832,222.7215 146.6452,223.4285 146.5252,224.1915 L146.0922,226.8835 C145.9722,227.6455 145.3112,228.1735 144.6172,228.0625 C143.9232,227.9515 143.4612,227.2445 143.5822,226.4815 L144.0142,223.7895 Z" id="Fill-18" fill="#FDC58A"></path>
            <path d="M149.1157,220.0023 L148.5057,252.7843 C148.5057,252.7843 152.4337,256.0253 155.6747,252.7843 L157.7367,230.4383 L160.3107,231.4383 L162.3777,255.2023 C162.3777,255.2023 165.5827,257.3623 169.0867,255.1043 L172.1157,221.2293 L149.1157,220.0023 Z" id="Fill-20" fill="#0065FF"></path>
            <path d="M155.5073,252.3324 L155.7613,256.3524 C155.7613,256.3524 149.1893,262.1354 140.7133,260.6804 C140.7133,260.6804 137.3023,259.5744 139.5283,256.4884 C139.5283,256.4884 146.2713,252.4634 151.3223,252.9774 L155.5073,252.3324 Z" id="Fill-22" fill="#F7EFE4"></path>
            <path d="M155.7612,252.0512 L155.7612,255.5952 C155.7612,255.5952 149.4612,261.1082 140.9842,259.6532 C140.9842,259.6532 137.3022,259.5742 139.5292,256.4882 C139.5292,256.4882 146.3782,252.2032 151.4302,252.7172 L155.7612,252.0512 Z" id="Fill-24" fill="#FFAB00"></path>
            <path d="M144.1377,255.0888 L148.0757,256.7938 C148.0757,256.7938 150.4737,256.6588 151.2437,254.2898 C151.2437,254.2898 152.1007,256.5448 148.1617,257.6568 C148.1617,257.6568 144.0517,257.8288 144.1377,255.0888" id="Fill-26" fill="#FFFFFF"></path>
            <path d="M169.291,254.3822 L169.291,259.6252 C169.291,259.6252 162.065,265.9482 152.344,264.2782 C152.344,264.2782 148.121,263.0102 150.674,259.4702 C150.674,259.4702 158.53,254.5572 164.324,255.1462 L169.291,254.3822 Z" id="Fill-28" fill="#F7EFE4"></path>
            <path d="M169.291,254.3822 L169.291,258.4462 C169.291,258.4462 162.065,264.7702 152.344,263.1002 C152.344,263.1002 148.121,263.0102 150.674,259.4702 C150.674,259.4702 158.53,254.5572 164.324,255.1462 L169.291,254.3822 Z" id="Fill-30" fill="#FFAB00"></path>
            <path d="M163.8389,257.0561 L159.7959,258.2671 C159.7959,258.2671 157.3349,258.1711 156.5439,256.4881 C156.5439,256.4881 155.6649,258.0901 159.7079,258.8801 C159.7079,258.8801 163.9269,259.0021 163.8389,257.0561" id="Fill-32" fill="#FFFFFF"></path>
            <path d="M172.5801,187.3866 C172.1401,193.2826 177.4491,215.1546 176.6701,221.7846 L145.6601,222.4356 C147.3691,217.2226 159.3621,213.9906 157.5471,202.8246 C156.7711,198.0516 155.9071,190.7406 155.9071,190.7406 L165.4941,177.9256 C165.4941,177.9256 172.7601,184.9856 172.5801,187.3866" id="Fill-34" fill="#66C698"></path>
            <path d="M154.9277,175.4931 C155.6717,178.0641 169.0057,182.2701 169.0017,186.2091 C168.9877,201.6111 170.8707,211.8031 171.9297,221.8751 L144.6087,222.4451 C144.7607,221.2581 148.4417,219.6191 148.8677,203.5471 C148.9227,201.4901 148.4847,193.7871 148.6597,188.3971 C148.8157,183.5841 155.8357,183.3471 155.8357,183.3471 C155.8357,183.3471 154.3997,173.6671 154.9277,175.4931" id="Fill-36" fill="#79F2C0"></path>
            <path d="M172.5752,193.7753 C172.5752,193.7753 176.6522,203.0053 176.7892,211.9323 L173.6532,211.9323 C173.6532,211.9323 172.9842,207.1613 172.5012,202.1573 L172.5752,193.7753 Z" id="Fill-38" fill="#E09629"></path>
            <path d="M167.7998,212.3817 L163.9788,210.3367 C163.9788,210.3367 165.5258,221.1597 167.6468,223.9867 C168.3858,224.9737 171.8618,226.5447 171.8618,226.5447 L167.7998,212.3817 Z" id="Fill-40" fill="#EB9D21"></path>
            <polygon id="Fill-42" fill="#F6D547" points="181.5566 208.9735 175.4256 207.6745 164.0766 210.9845 167.9216 212.8035"></polygon>
            <path d="M170.6484,225.7294 C170.7944,226.3104 171.3374,226.6744 171.8624,226.5444 L184.5934,223.3334 C185.1184,223.2004 185.4214,222.6224 185.2754,222.0404 L182.1714,209.7294 C182.0254,209.1484 181.4814,208.7844 180.9584,208.9164 L168.2254,212.1264 C167.7024,212.2584 167.3974,212.8374 167.5444,213.4194 L170.6484,225.7294 Z" id="Fill-44" fill="#F6D547"></path>
            <path d="M171.2207,224.6112 C171.3487,225.1182 171.8317,225.4352 172.2967,225.3182 L183.6287,222.4602 C184.0957,222.3422 184.3677,221.8342 184.2407,221.3262 L181.5337,210.5902 C181.4057,210.0812 180.9237,209.7672 180.4567,209.8822 L169.1247,212.7442 C168.6597,212.8612 168.3857,213.3682 168.5137,213.8732 L171.2207,224.6112 Z" id="Fill-46" fill="#CB852A"></path>
            <path d="M153.2598,182.9159 C153.2598,182.9159 161.7928,202.8539 166.9668,213.6819 L165.0248,212.8609 C165.0248,212.8609 161.3728,208.2899 150.3568,182.7319 L153.2598,182.9159 Z" id="Fill-48" fill="#CB852A"></path>
            <polygon id="Fill-50" fill="#EBE7E1" points="176.3779 209.1991 173.0149 203.6821 163.8699 206.3411 168.4819 213.2301"></polygon>
            <polygon id="Fill-52" fill="#F9F4ED" points="178.6641 210.3368 175.0171 204.2958 165.8701 206.9568 168.8751 212.2818"></polygon>
            <polygon id="Fill-54" fill="#FFFFFF" points="178.1162 210.5976 174.7552 205.0766 165.6082 207.7396 168.6132 213.0646"></polygon>
            <path d="M171.4492,221.7245 C183.5112,207.6745 177.8902,182.0665 173.1582,180.0285 L164.1982,181.8035 C164.1982,181.8035 178.7972,197.3135 167.3472,217.9705" id="Fill-56" fill="#2F9164"></path>
            <path d="M166.7715,219.0766 C169.5525,211.0286 169.6075,203.6826 169.6075,203.6826 C169.6075,203.6826 169.7375,185.8596 163.7675,181.9356 L170.1245,180.6296 C170.1245,180.6296 180.1355,199.6376 170.5465,221.5286" id="Fill-58" fill="#36B37E"></path>
            <path d="M173.7217,223.0819 C174.2977,222.0769 173.8187,220.7199 172.6497,220.0509 L168.5627,217.7069 C167.3937,217.0379 166.1277,216.7079 165.5527,217.7139 L163.9787,220.8019 C163.4027,221.8059 163.8827,223.1629 165.0507,223.8329 L169.1397,226.1769 C170.3077,226.8449 171.7217,226.5729 172.2977,225.5679 L173.7217,223.0819 Z" id="Fill-60" fill="#FDC58A"></path>
            <path d="M165.6729,222.828 C165.9519,222.109 165.6489,221.321 164.9929,221.067 C164.3399,220.811 163.5819,221.189 163.3029,221.91 L162.3169,224.449 C162.0369,225.17 162.3399,225.959 162.9939,226.215 C163.6489,226.468 164.4049,226.091 164.6859,225.37 L165.6729,222.828 Z" id="Fill-62" fill="#FDC58A"></path>
            <path d="M170.0137,225.3549 C170.2917,224.6359 169.9897,223.8459 169.3337,223.5919 C168.6797,223.3369 167.9227,223.7149 167.6437,224.4349 L166.6567,226.9769 C166.3767,227.6939 166.6807,228.4859 167.3347,228.7389 C167.9907,228.9929 168.7457,228.6169 169.0267,227.8969 L170.0137,225.3549 Z" id="Fill-64" fill="#FDC58A"></path>
            <path d="M167.6592,224.6879 C167.9382,223.9679 167.6362,223.1779 166.9812,222.9239 C166.3262,222.6689 165.5682,223.0459 165.2902,223.7659 L164.3022,226.3079 C164.0222,227.0279 164.3262,227.8179 164.9812,228.0709 C165.6362,228.3259 166.3922,227.9479 166.6732,227.2279 L167.6592,224.6879 Z" id="Fill-66" fill="#FDC58A"></path>
            <path d="M172.2754,224.7265 C172.3124,223.9545 171.7724,223.3025 171.0714,223.2715 C170.3694,223.2375 169.7724,223.8355 169.7354,224.6075 L169.6094,227.3315 C169.5724,228.1015 170.1114,228.7535 170.8134,228.7865 C171.5154,228.8195 172.1124,228.2215 172.1484,227.4495 L172.2754,224.7265 Z" id="Fill-68" fill="#FDC58A"></path>
            <path d="M133.2339,160.3119 C133.5999,172.4639 146.0539,183.4679 157.0289,183.1439 L165.2639,182.3859 C176.2399,182.0599 185.7089,170.9219 185.3399,158.7719 L185.2099,154.3959 C184.8429,142.2459 175.6489,132.6619 164.6769,132.9839 L152.3079,133.3519 C141.3339,133.6749 132.7359,143.7879 133.1029,155.9379 L133.2339,160.3119 Z" id="Fill-70" fill="#F9AA6A"></path>
            <path d="M133.6582,164.1562 C137.9082,178.4232 143.3552,183.1442 155.6962,183.1452 L158.3612,183.1422 C169.3382,182.8162 178.6662,175.0212 178.2972,162.8702 L178.1662,158.4952 C177.8002,146.3442 178.3062,136.3962 167.3352,136.7192 L153.3272,136.7112 C142.3532,137.0352 132.7802,145.2832 133.1482,157.4332 L133.6582,164.1562 Z" id="Fill-72" fill="#FDC58A"></path>
            <path d="M151.1787,159.8656 C151.2157,161.1716 152.3047,162.1986 153.6107,162.1606 C154.9167,162.1216 155.9427,161.0296 155.9027,159.7256 C155.8647,158.4206 154.7727,157.3936 153.4707,157.4346 C152.1637,157.4706 151.1387,158.5606 151.1787,159.8656" id="Fill-74" fill="#221F1F"></path>
            <path d="M151.3174,159.8769 C151.3304,160.2899 151.6724,160.6119 152.0844,160.5989 C152.4974,160.5869 152.8214,160.2449 152.8084,159.8319 C152.7984,159.4199 152.4544,159.0969 152.0404,159.1079 C151.6314,159.1199 151.3034,159.4629 151.3174,159.8769" id="Fill-76" fill="#FFFFFF"></path>
            <path d="M137.9092,160.2465 C137.9512,161.5535 139.0382,162.5785 140.3452,162.5395 C141.6502,162.5005 142.6752,161.4115 142.6382,160.1075 C142.5982,158.8025 141.5102,157.7735 140.2042,157.8135 C138.8982,157.8525 137.8712,158.9445 137.9092,160.2465" id="Fill-78" fill="#221F1F"></path>
            <path d="M138.2451,160.3642 C138.2581,160.7762 138.6031,161.1002 139.0151,161.0902 C139.4271,161.0752 139.7501,160.7302 139.7371,160.3192 C139.7261,159.9072 139.3831,159.5852 138.9701,159.5962 C138.5581,159.6082 138.2311,159.9512 138.2451,160.3642" id="Fill-80" fill="#FFFFFF"></path>
            <path d="M153.3276,168.5614 C153.2996,172.3394 150.2116,175.3804 146.4336,175.3534 C142.6536,175.3244 139.6116,172.2384 139.6416,168.4574" id="Fill-82" fill="#FFFFFF"></path>
            <path d="M132.0156,157.7162 L131.5776,152.3612 C131.5776,152.3612 121.1546,141.3602 126.5656,131.9622 C126.5656,131.9622 125.4676,119.2562 157.3096,120.9192 C157.3096,120.9192 165.7036,114.2012 158.8206,105.9772 C158.8206,105.9772 168.4516,103.9772 173.4076,109.2552 C173.4076,109.2552 176.6156,108.0132 172.9406,105.2952 C171.0856,104.7202 200.9806,113.7402 184.2866,130.9082 C184.2866,130.9082 204.2706,137.3412 183.8756,153.9052 L175.6826,156.1752 C175.6826,156.1752 178.3896,143.2922 173.3796,141.2222 C173.3796,141.2222 154.4016,151.0512 136.7166,145.4232 C136.7166,145.4232 130.9506,151.5022 133.1216,159.0402 L132.0156,157.7162 Z" id="Fill-84" fill="#F72A14"></path>
            <path d="M131.6978,157.6928 L129.3778,152.6318 C129.3778,152.6318 106.0068,136.5388 127.6978,126.7968 C127.6978,126.7968 132.8728,103.8278 155.1858,117.2728 C155.1858,117.2728 165.8568,115.5098 158.5858,105.8588 C158.5858,105.8588 169.5278,105.2708 170.7618,113.0288 C170.7618,113.0288 191.7888,114.0248 178.9408,131.5058 C178.9408,131.5058 195.3778,140.1148 179.8438,155.0828 L175.5518,156.2108 C175.5518,156.2108 175.7598,147.1478 172.7488,144.2968 C172.7488,144.2968 152.2008,151.3228 134.5168,145.6938 C134.5168,145.6938 132.5118,154.8068 133.2198,159.3588 L131.6978,157.6928 Z" id="Fill-86" fill="#FC5130"></path>
            <path d="M195,268.0732 C195,271.4752 201.371,274.2332 209.23,274.2332 C217.089,274.2332 223.46,271.4752 223.46,268.0732 C223.46,264.6712 217.089,261.9122 209.23,261.9122 C201.371,261.9122 195,264.6712 195,268.0732" id="Fill-88" fill="#161642"></path>
            <path d="M210.4648,264.038 C210.4648,264.038 207.8118,265.053 207.1198,263.728 C207.1198,263.728 200.8638,264.164 200.4058,264.909 C200.4058,264.909 198.6878,266.913 201.6098,268.173 C201.6098,268.173 203.7288,269.376 210.2588,267.2 C210.2588,267.2 210.9228,266.559 210.4648,264.038" id="Fill-90" fill="#FF5630"></path>
            <path d="M210.4648,264.038 C210.4648,264.038 207.8118,265.053 207.1198,263.728 C207.1198,263.728 200.8638,264.164 200.4058,264.909 C200.4058,264.909 198.8708,266.262 201.7928,267.522 C201.7928,267.522 203.9118,268.725 210.4428,266.548 C210.4428,266.548 210.9228,266.559 210.4648,264.038" id="Fill-92" fill="#FF8F73"></path>
            <path d="M205.3896,234.206 C205.3896,234.206 203.5726,240.954 205.9626,244.288 C206.6336,245.223 206.8636,247.201 206.8176,248.812 C206.8176,248.812 206.7026,263.305 207.3226,264.909 L210.2016,264.909 L211.9036,255.923 C211.9036,255.923 214.1046,249.637 211.7926,246.13 C211.1226,245.113 211.0726,243.693 212.4926,241.309 C212.4926,241.309 214.5546,237.414 214.2106,232.717 L205.3896,234.206 Z" id="Fill-94" fill="#F9AA69"></path>
            <path d="M205.3896,234.206 C205.3896,234.206 203.5726,240.954 205.9626,244.288 C206.6336,245.223 206.8636,247.201 206.8176,248.812 C206.8176,248.812 206.7026,263.305 207.3226,264.909 L208.8266,264.909 L210.5286,255.923 C210.5286,255.923 212.7296,249.637 210.4176,246.13 C209.7476,245.113 209.6976,243.693 211.1186,241.309 C211.1186,241.309 213.1796,237.414 212.8356,232.717 L205.3896,234.206 Z" id="Fill-96" fill="#FDC58A"></path>
            <path d="M211.418,234.4076 C211.418,234.4076 209.402,241.8926 212.054,245.5916 C212.798,246.6286 213.053,248.8226 213.002,250.6106 C213.002,250.6106 212.875,266.6866 213.562,268.4656 L216.756,268.4656 L218.643,258.4976 C218.643,258.4976 221.085,251.5246 218.522,247.6346 C217.777,246.5066 217.722,244.9316 219.297,242.2866 C219.297,242.2866 221.585,237.9666 221.203,232.7556 L211.418,234.4076 Z" id="Fill-98" fill="#F9AA69"></path>
            <path d="M211.418,234.4076 C211.418,234.4076 209.402,241.8926 212.054,245.5916 C212.798,246.6286 213.053,248.8226 213.002,250.6106 C213.002,250.6106 212.875,266.6866 213.562,268.4656 L215.231,268.4656 L217.118,258.4976 C217.118,258.4976 219.561,251.5246 216.996,247.6346 C216.253,246.5066 216.196,244.9316 217.772,242.2866 C217.772,242.2866 220.06,237.9666 219.679,232.7556 L211.418,234.4076 Z" id="Fill-100" fill="#FDC58A"></path>
            <path d="M202.9922,223.0238 C202.9922,223.0238 199.3922,232.3208 199.4312,238.5588 C199.4312,238.5588 212.3642,244.9488 225.6562,237.0908 L221.8982,220.8398 L202.9922,223.0238 Z" id="Fill-102" fill="#F72A14"></path>
            <path d="M213.6797,193.977 L210.5227,192.092" id="Fill-104" fill="#ED8470"></path>
            <path d="M197.584,204.1601 C197.708,206.9791 199.518,209.1901 201.626,209.0971 C203.735,209.0051 205.344,206.6441 205.22,203.8251 C205.097,201.0051 204.604,197.7431 202.495,197.8361 C200.387,197.9281 197.46,201.3401 197.584,204.1601" id="Fill-106" fill="#FFAB00"></path>
            <path d="M217.3965,195.3358 C217.3965,195.3358 221.1205,202.6138 218.8685,211.2578 C218.8685,211.2578 216.8035,219.0958 222.9875,221.0558 L202.5865,223.5908 C204.3175,219.7288 201.4835,212.2678 201.3755,203.3608 C201.3295,199.5528 206.1795,189.7448 206.1795,189.7448 L215.4825,190.0198" id="Fill-108" fill="#FF9100"></path>
            <path d="M215.2959,195.8544 C215.2959,195.8544 218.5019,202.7654 216.2499,211.4094 C216.2499,211.4094 212.6539,219.0964 218.8379,221.0554 L202.5869,223.5914 C204.3169,219.7294 201.4829,212.2674 201.3749,203.3614 C201.3289,199.5534 203.3949,189.0044 203.3949,189.0044 L212.1809,191.3414" id="Fill-110" fill="#FFAB00"></path>
            <path d="M220.2617,198.5829 C224.5787,200.1449 226.0167,203.2909 227.8077,204.8969 C228.9987,205.9649 223.5507,213.5929 223.4537,214.7339 C223.1887,217.8649 224.3237,218.7919 224.3237,218.7919 C228.6817,215.3619 233.4467,209.2399 233.7517,206.5209 C234.4237,200.5379 223.6967,193.7799 223.6967,193.7799 C223.6967,193.7799 220.1577,191.0239 216.0107,192.0919 L215.2957,195.8539 L220.2617,198.5829 Z" id="Fill-112" fill="#FF9100"></path>
            <path d="M214.5146,196.9398 C218.7676,199.9598 225.0146,204.4248 225.5956,205.4118 C226.3856,206.7538 222.1336,213.6408 222.0366,214.7818 C221.7716,217.9118 222.9066,218.8388 222.9066,218.8388 C227.2646,215.4088 232.0296,209.2878 232.3346,206.5678 C233.0066,200.5848 222.2786,193.8278 222.2786,193.8278 C222.2786,193.8278 218.3806,191.0238 214.2346,192.0918 L211.3016,192.5578 L214.5146,196.9398 Z" id="Fill-114" fill="#FFAB00"></path>
            <path d="M206.2529,191.7836 C206.2529,191.7836 204.0459,198.2806 205.4369,198.8496 C207.2399,199.5886 210.6069,191.4446 210.6069,191.4446 L206.2529,191.7836 Z" id="Fill-116" fill="#FDC58A"></path>
            <path d="M216.9971,182.5629 C216.9971,182.5629 208.3691,184.5549 205.6851,177.2489 C205.6851,177.2489 204.5031,179.7449 196.7351,184.2429 C193.6841,186.0099 185.9251,185.5359 183.3351,181.3079 C182.0511,179.2129 182.0361,176.1959 184.4921,172.0729 C185.5641,170.2729 186.0911,167.0939 183.3641,164.8759 C176.6001,159.3759 184.1041,141.5579 197.6261,148.3529 C197.6261,148.3529 223.2191,179.4359 216.9971,182.5629" id="Fill-118" fill="#406AF8"></path>
            <path d="M213.4424,182.1869 C213.4424,182.1869 221.1464,186.5529 225.7994,180.3119 C225.7994,180.3119 224.1364,181.5209 228.3504,189.4469 C231.2454,194.8939 251.1534,195.4199 247.5884,181.3829 C247.0724,179.3519 247.4724,176.1549 250.7184,174.8049 C258.7684,171.4569 258.5564,151.4469 240.0464,154.9609 C240.0464,154.9609 208.3684,177.4179 213.4424,182.1869" id="Fill-120" fill="#1A52A3"></path>
            <path d="M210.9043,181.705 C210.9043,181.705 218.6083,186.07 223.2613,179.83 C223.2613,179.83 221.1463,182.078 227.3123,188.601 C230.9353,192.433 246.0773,194.456 242.5123,180.418 C241.9973,178.388 242.3973,175.19 245.6423,173.841 C253.6923,170.493 254.0833,151.883 235.5733,155.397 C235.5733,155.397 205.8303,176.936 210.9043,181.705" id="Fill-122" fill="#406AF8"></path>
            <path d="M188.7148,169.2323 C189.1448,181.7023 194.9398,192.9023 206.2228,192.5113 L218.9378,192.0753 C230.2228,191.6813 234.5428,180.1943 234.1108,167.7273 L233.9548,163.2363 C233.5268,150.7683 228.4518,140.7913 217.1688,141.1793 L204.4538,141.6183 C193.1718,142.0083 188.1278,152.2743 188.5608,164.7433 L188.7148,169.2323 Z" id="Fill-124" fill="#F9AA69"></path>
            <path d="M213.6523,192.2563 L206.2223,192.5113 C194.9393,192.9023 189.1443,181.7023 188.7153,169.2323 L188.5603,164.7433 C188.1283,152.2753 193.1723,142.0083 204.4543,141.6183 L209.0873,140.9063 C220.3703,140.5173 226.1423,151.4123 226.5713,163.8813 C226.5713,163.8813 228.2083,190.0213 213.6523,192.2563" id="Fill-126" fill="#FDC58A"></path>
            <path d="M216.1777,125.1278 C216.1777,125.1278 220.0837,124.9758 224.8427,126.4268 C224.9027,126.4318 224.9567,126.4318 225.0177,126.4378 C225.0177,126.4378 248.2397,131.2148 241.9007,166.6308 C241.9007,166.6308 230.7817,168.0928 232.5527,159.2008 C232.5527,159.2008 236.4837,155.4298 230.7167,153.4688 C230.7167,153.4688 222.9947,160.4918 215.7117,158.7338 C215.7117,158.7338 220.2567,155.4618 216.1107,153.7348 C216.1107,153.7348 210.6127,160.4278 204.0907,159.3838 C204.0907,159.3838 206.4687,157.2178 204.7057,153.9208 C204.7057,153.9208 195.7377,161.8328 192.9557,161.6698 C192.9557,161.6698 191.7877,159.0478 191.9717,157.0168 C192.0127,156.5618 192.0257,155.4628 192.1327,153.9488 C191.1207,155.7478 189.0297,159.7938 188.5287,163.2908 C188.5287,163.2908 177.6967,125.9258 216.1777,125.1278" id="Fill-128" fill="#1A52A3"></path>
            <path d="M201.7812,127.8949 C201.7812,127.8949 235.6802,117.7579 241.9002,166.6309 C239.2562,167.0319 231.3102,168.2359 232.5522,159.2009 C232.5522,159.2009 234.2522,153.8509 228.4852,151.8899 C228.4852,151.8899 222.9952,160.4919 215.7122,158.7339 C215.7122,158.7339 218.6732,154.6029 214.5272,152.8769 C214.5272,152.8769 210.6122,160.4279 204.0912,159.3839 C204.0912,159.3839 206.4682,157.2179 204.7062,153.9209 C204.7062,153.9209 195.7372,161.8329 192.9562,161.6699 C192.9562,161.6699 191.7882,159.0479 191.9712,157.0169 C192.0122,156.5619 192.0252,155.4629 192.1332,153.9489 C191.1212,155.7479 189.0292,159.7939 188.5282,163.2909 C188.5282,163.2909 179.3322,135.9519 201.7812,127.8949" id="Fill-130" fill="#406AF8"></path>
            <path d="M227.6309,145.3378 C227.3729,146.2458 228.0549,147.2318 229.1479,147.5428 L230.7229,147.9908 C231.8179,148.3028 232.9149,147.8218 233.1739,146.9088 C233.4319,146.0048 232.7519,145.0188 231.6549,144.7088 L230.0819,144.2608 C228.9869,143.9488 227.8899,144.4318 227.6309,145.3378" id="Fill-132" fill="#FFC600"></path>
            <path d="M223.6729,143.894 C223.2929,145.961 220.0489,147.512 224.0589,148.08 L225.3319,148.312 C227.4009,148.689 229.3809,147.319 229.7609,145.255 C230.1379,143.185 228.7709,141.203 226.7029,140.827 L225.4279,140.594 C221.7649,139.925 223.6729,143.894 223.6729,143.894" id="Fill-134" fill="#FFC600"></path>
            <path d="M236.6846,148.1088 C237.2976,146.1008 240.7006,144.9318 236.7796,143.9078 L235.5406,143.5308 C233.5296,142.9198 231.4046,144.0548 230.7916,146.0618 C230.1816,148.0738 231.3136,150.1998 233.3256,150.8088 L234.5636,151.1878 C238.1256,152.2688 236.6846,148.1088 236.6846,148.1088" id="Fill-136" fill="#FFC600"></path>
            <path d="M199.0937,169.5785 C199.0757,170.7405 198.1187,171.6665 196.9587,171.6515 C195.7967,171.6325 194.8687,170.6775 194.8877,169.5165 C194.9047,168.3545 195.8607,167.4265 197.0237,167.4435 C198.1817,167.4615 199.1107,168.4155 199.0937,169.5785" id="Fill-138" fill="#221F1F"></path>
            <path d="M197.1582,170.851 C197.1532,171.215 196.8492,171.509 196.4852,171.503 C196.1152,171.498 195.8252,171.195 195.8312,170.829 C195.8342,170.462 196.1372,170.169 196.5042,170.175 C196.8712,170.182 197.1632,170.483 197.1582,170.851" id="Fill-140" fill="#FFFFFF"></path>
            <path d="M212.708,169.7802 C212.691,170.9432 211.735,171.8712 210.572,171.8522 C209.412,171.8322 208.484,170.8772 208.501,169.7182 C208.519,168.5572 209.473,167.6292 210.634,167.6462 C211.796,167.6632 212.726,168.6192 212.708,169.7802" id="Fill-142" fill="#221F1F"></path>
            <path d="M210.7734,170.9794 C210.7664,171.3474 210.4644,171.6394 210.0994,171.6334 C209.7314,171.6274 209.4404,171.3254 209.4434,170.9594 C209.4494,170.5914 209.7504,170.2974 210.1194,170.3064 C210.4854,170.3104 210.7784,170.6134 210.7734,170.9794" id="Fill-144" fill="#FFFFFF"></path>
            <path d="M209.4844,179.102 C209.4324,182.465 206.6674,185.153 203.3064,185.102 C199.9434,185.053 197.2584,182.287 197.3064,178.923" id="Fill-146" fill="#FFFFFF"></path>
            <path d="M229.2754,215.329 C229.2754,215.329 238.5574,225.342 238.3704,229.558 L240.0844,229.993 C240.0844,229.993 237.8084,221.796 230.1174,214.599 L229.2754,215.329 Z" id="Fill-148" fill="#4CC7EC"></path>
            <path d="M229.8477,232.5356 L227.5927,232.3006 C227.5927,232.3006 228.4317,238.2786 230.3387,239.7626 C231.0047,240.2836 233.5697,240.6136 233.5697,240.6136 L229.8477,232.5356 Z" id="Fill-150" fill="#4068B1"></path>
            <path d="M232.4121,240.2294 C232.5421,240.5624 233.0201,240.7264 233.4781,240.5974 L244.5931,237.4174 C245.0491,237.2854 245.3101,236.9104 245.1801,236.5764 L242.3961,229.5294 C242.2651,229.1954 240.4131,229.2794 239.9541,229.4104 L230.2181,232.3424 C229.7591,232.4724 229.4971,232.8504 229.6281,233.1814 L232.4121,240.2294 Z" id="Fill-152" fill="#4CC7EC"></path>
            <polygon id="Fill-154" fill="#3A59A7" points="242.2832 229.2489 237.8892 228.7389 227.5932 232.3009 230.1202 233.6449"></polygon>
            <path d="M229.7959,233.4731 C229.7959,233.4731 242.3429,239.0551 242.2829,229.2491 L229.7959,233.4731 Z" id="Fill-156" fill="#3A59A7"></path>
            <path d="M240.5537,235.1068 C240.6627,235.6998 240.2727,236.2688 239.6797,236.3778 L239.5807,236.3958 C238.9917,236.5048 238.4197,236.1138 238.3107,235.5218 L238.2357,235.1128 C238.1257,234.5198 238.5197,233.9518 239.1097,233.8428 L239.2077,233.8238 C239.8007,233.7148 240.3687,234.1058 240.4787,234.6988 L240.5537,235.1068 Z" id="Fill-158" fill="#FAA919"></path>
            <path d="M240.0928,235.1078 C240.1578,235.4628 239.9228,235.8068 239.5678,235.8718 L239.5078,235.8828 C239.1528,235.9488 238.8098,235.7118 238.7438,235.3568 L238.6978,235.1118 C238.6318,234.7538 238.8688,234.4138 239.2248,234.3478 L239.2828,234.3368 C239.6398,234.2708 239.9818,234.5048 240.0478,234.8628 L240.0928,235.1078 Z" id="Fill-160" fill="#FFFFFF"></path>
            <path d="M224.2061,207.7338 C224.2061,207.7338 222.5361,225.3418 229.2271,235.6688 L230.0511,235.5168 C230.0511,235.5168 223.8781,224.2768 225.2301,207.5448 L224.2061,207.7338 Z" id="Fill-162" fill="#4CC7EC"></path>
            <path d="M216.4941,232.3954 L227.1551,225.1384 C227.1611,225.1344 227.1621,225.1264 227.1591,225.1214 L215.0691,207.3614 C215.0691,207.3614 214.1031,207.2984 213.9111,207.4294 C212.1871,208.5994 204.3181,214.3654 204.3211,214.3704 L216.4771,232.3924 C216.4811,232.3974 216.4891,232.3994 216.4941,232.3954" id="Fill-164" fill="#E2D9D9"></path>
            <path d="M215.7461,233.0434 L226.4071,225.7864 C226.4131,225.7824 226.4141,225.7744 226.4101,225.7694 L213.9291,207.4324 C213.9251,207.4274 213.9171,207.4254 213.9111,207.4294 L203.2501,214.6864 C203.2451,214.6904 203.2431,214.6984 203.2471,214.7044 L215.7281,233.0404 C215.7321,233.0454 215.7401,233.0474 215.7461,233.0434" id="Fill-166" fill="#F7F1F0"></path>
            <path d="M209.5957,214.9706 C210.0467,215.7156 210.9357,216.0036 211.5797,215.6126 C212.2247,215.2216 212.3817,214.3006 211.9297,213.5556 C211.4787,212.8106 210.5897,212.5236 209.9457,212.9136 C209.3007,213.3046 209.1437,214.2256 209.5957,214.9706" id="Fill-168" fill="#E2D9D9"></path>
            <path d="M209.8848,214.7948 C210.2248,215.3548 210.8928,215.5708 211.3768,215.2768 C211.8618,214.9838 211.9798,214.2918 211.6408,213.7318 C211.3008,213.1708 210.6328,212.9558 210.1488,213.2488 C209.6628,213.5428 209.5458,214.2348 209.8848,214.7948" id="Fill-170" fill="#FFFFFF"></path>
            <path d="M208.1562,215.7392 C208.3332,216.0302 208.6792,216.1422 208.9312,215.9902 C209.1832,215.8372 209.2452,215.4772 209.0682,215.1862 C208.8922,214.8952 208.5452,214.7832 208.2932,214.9352 C208.0412,215.0882 207.9792,215.4482 208.1562,215.7392" id="Fill-172" fill="#E2D9D9"></path>
            <path d="M208.2695,215.6708 C208.4025,215.8898 208.6635,215.9738 208.8525,215.8588 C209.0415,215.7448 209.0875,215.4738 208.9555,215.2548 C208.8235,215.0358 208.5615,214.9518 208.3725,215.0668 C208.1825,215.1818 208.1365,215.4518 208.2695,215.6708" id="Fill-174" fill="#FFFFFF"></path>
            <path d="M224.4971,222.2128 C225.6541,221.5318 225.9511,219.8918 225.1581,218.5458 L222.3931,213.8398 C221.6011,212.4948 220.5171,211.4368 219.3601,212.1188 L216.0021,214.3208 C214.8451,214.9998 214.5491,216.6418 215.3401,217.9878 L218.1081,222.6948 C218.8991,224.0378 220.4781,224.5758 221.6361,223.8968 L224.4971,222.2128 Z" id="Fill-176" fill="#FDC58A"></path>
            <path d="M216.543,217.3334 C217.237,216.7704 217.384,215.8024 216.871,215.1704 C216.359,214.5384 215.381,214.4824 214.686,215.0474 L212.234,217.0364 C211.538,217.6014 211.39,218.5694 211.901,219.2024 C212.415,219.8334 213.393,219.8884 214.089,219.3244 L216.543,217.3334 Z" id="Fill-178" fill="#FDC58A"></path>
            <path d="M219.459,222.3695 C220.152,221.8065 220.302,220.8375 219.788,220.2045 C219.276,219.5735 218.298,219.5185 217.603,220.0815 L215.148,222.0725 C214.456,222.6345 214.308,223.6055 214.819,224.2365 C215.333,224.8685 216.31,224.9235 217.005,224.3605 L219.459,222.3695 Z" id="Fill-180" fill="#FDC58A"></path>
            <path d="M217.4727,220.3461 C218.1677,219.7821 218.3167,218.8121 217.8037,218.1811 C217.2907,217.5491 216.3127,217.4931 215.6187,218.0561 L213.1637,220.0471 C212.4697,220.6111 212.3217,221.5801 212.8347,222.2121 C213.3467,222.8441 214.3267,222.8991 215.0217,222.3351 L217.4727,220.3461 Z" id="Fill-182" fill="#FDC58A"></path>
            <path d="M222.0957,223.0365 C222.5757,222.2815 222.4077,221.3155 221.7207,220.8805 C221.0337,220.4435 220.0897,220.7025 219.6087,221.4575 L217.9167,224.1265 C217.4377,224.8805 217.6057,225.8465 218.2927,226.2825 C218.9807,226.7185 219.9237,226.4595 220.4047,225.7035 L222.0957,223.0365 Z" id="Fill-184" fill="#FDC58A"></path>
            <path d="M217.0381,267.1781 C217.0381,267.1781 214.5301,268.7761 213.5981,267.4041 C213.5981,267.4041 206.7621,268.6881 206.3521,269.5671 C206.3521,269.5671 204.7171,271.9961 208.0971,273.0101 C208.0971,273.0101 210.5871,274.0631 217.5021,270.8261 C217.5021,270.8261 218.1631,270.0231 217.0381,267.1781" id="Fill-186" fill="#FF5630"></path>
            <path d="M217.166,267.1781 C217.166,267.1781 214.53,268.7761 213.598,267.4041 C213.598,267.4041 206.762,268.6881 206.353,269.5671 C206.353,269.5671 204.835,271.2551 208.216,272.2691 C208.216,272.2691 210.705,273.3221 217.621,270.0851 C217.621,270.0851 217.995,269.8961 217.166,267.1781" id="Fill-188" fill="#FF8F73"></path>
            <path d="M171.4092,86.8437 C171.4092,88.6387 169.9542,90.0937 168.1592,90.0937 C166.3642,90.0937 164.9092,88.6387 164.9092,86.8437 C164.9092,85.0487 166.3642,83.5937 168.1592,83.5937 C169.9542,83.5937 171.4092,85.0487 171.4092,86.8437" id="Fill-190" fill="#FFFFFF"></path>
            <path d="M204.0312,106.8857 C204.0312,107.8237 203.2712,108.5857 202.3322,108.5857 C201.3932,108.5857 200.6322,107.8237 200.6322,106.8857 C200.6322,105.9477 201.3932,105.1867 202.3322,105.1867 C203.2712,105.1867 204.0312,105.9477 204.0312,106.8857" id="Fill-192" fill="#FFFFFF"></path>
            <path d="M255.1729,136.7113 C255.1729,138.2253 253.9449,139.4553 252.4289,139.4553 C250.9129,139.4553 249.6859,138.2253 249.6859,136.7113 C249.6859,135.1963 250.9129,133.9673 252.4289,133.9673 C253.9449,133.9673 255.1729,135.1963 255.1729,136.7113" id="Fill-194" fill="#FFFFFF"></path>
            <path d="M82.3052,127.1103 C82.3052,128.6243 81.0782,129.8543 79.5612,129.8543 C78.0462,129.8543 76.8182,128.6243 76.8182,127.1103 C76.8182,125.5943 78.0462,124.3663 79.5612,124.3663 C81.0782,124.3663 82.3052,125.5943 82.3052,127.1103" id="Fill-196" fill="#FFFFFF"></path>
            <path d="M246.6816,214.265 C246.6816,215.075 246.0236,215.732 245.2126,215.732 C244.4026,215.732 243.7446,215.075 243.7446,214.265 C243.7446,213.451 244.4026,212.794 245.2126,212.794 C246.0236,212.794 246.6816,213.451 246.6816,214.265" id="Fill-198" fill="#FFFFFF"></path>
            <path d="M288.8213,81.4731 C288.8213,82.4131 288.0583,83.1761 287.1183,83.1761 C286.1783,83.1761 285.4163,82.4131 285.4163,81.4731 C285.4163,80.5341 286.1783,79.7721 287.1183,79.7721 C288.0583,79.7721 288.8213,80.5341 288.8213,81.4731" id="Fill-200" fill="#FFFFFF"></path>
            <path d="M62.8081,154.4179 C62.8081,154.9569 62.3731,155.3939 61.8331,155.3939 C61.2931,155.3939 60.8571,154.9569 60.8571,154.4179 C60.8571,153.8779 61.2931,153.4409 61.8331,153.4409 C62.3731,153.4409 62.8081,153.8779 62.8081,154.4179" id="Fill-202" fill="#FFFFFF"></path>
            <path d="M67.1738,189.3837 C67.1738,190.1367 66.5658,190.7487 65.8108,190.7487 C65.0548,190.7487 64.4458,190.1367 64.4458,189.3837 C64.4458,188.6297 65.0548,188.0187 65.8108,188.0187 C66.5658,188.0187 67.1738,188.6297 67.1738,189.3837" id="Fill-204" fill="#FFFFFF"></path>
            <path d="M135.2935,199.641 C135.2935,200.855 134.3075,201.839 133.0935,201.839 C131.8745,201.839 130.8905,200.855 130.8905,199.641 C130.8905,198.424 131.8745,197.435 133.0935,197.435 C134.3075,197.435 135.2935,198.424 135.2935,199.641" id="Fill-206" fill="#FFFFFF"></path>
            <path d="M110.4478,86.8036 C110.4478,87.5656 109.8318,88.1796 109.0728,88.1796 C108.3148,88.1796 107.6988,87.5656 107.6988,86.8036 C107.6988,86.0456 108.3148,85.4296 109.0728,85.4296 C109.8318,85.4296 110.4478,86.0456 110.4478,86.8036" id="Fill-208" fill="#FFFFFF"></path>
            <path d="M301.7617,190.9018 C301.2587,191.8368 300.0957,192.1828 299.1617,191.6848 C298.2267,191.1798 297.8787,190.0138 298.3817,189.0818 C298.8847,188.1488 300.0497,187.7988 300.9847,188.3018 C301.9147,188.8058 302.2657,189.9698 301.7617,190.9018" id="Fill-210" fill="#FFFFFF"></path>
            <path d="M43.0532,83.3417 L31.8002,148.3017 C31.8002,148.3017 57.3072,145.5637 65.8092,144.6517 L99.8192,141.0007 L91.2722,81.1587 L43.0532,83.3417 Z" id="Fill-212" fill="#FFAB00" opacity="0.271149554"></path>
            <g id="Group-229" transform="translate(40.000000, 0.000000)">
                <g id="Group-226" transform="translate(27.000000, 0.000000)">
                    <mask id="mask-2" fill="white">
                        <use xlink:href="#path-1"></use>
                    </mask>
                    <g id="Clip-225"></g>
                    <path d="M0.1738,-0.9591 L0.1738,73.0589" id="Stroke-224" stroke="#416FF9" stroke-width="3" mask="url(#mask-2)"></path>
                </g>
                <path d="M0.583,84.0321 C0.583,67.7941 12.488,54.6301 27.174,54.6301 C41.86,54.6301 53.765,67.7941 53.765,84.0321 L0.583,84.0321 Z" id="Fill-227" fill="#00D8FF"></path>
            </g>
            <polygon id="Fill-230" fill="#FF8F73" points="1.6709 217.1166 59.8579 203.8536 203.3959 256.7066 147.9349 282.8336"></polygon>
            <polygon id="Fill-232" fill="#EA4934" points="147.1514 338.3686 201.3754 306.2636 201.3754 257.6846 145.2884 282.1486"></polygon>
            <path d="M146.1514,338.3686 L6.5034,270.6516 C5.9534,270.6516 5.5034,270.2016 5.5034,269.6516 L5.5034,225.2926 C5.5034,224.7436 5.9534,224.2926 6.5034,224.2926 L146.1514,289.0106 C146.7014,289.0106 147.1514,289.4596 147.1514,290.0106 L147.1514,337.3686 C147.1514,337.9196 146.7014,338.3686 146.1514,338.3686" id="Fill-234" fill="#FC5130"></path>
            <polygon id="Fill-236" fill="#D12A2A" points="147.1514 300.7025 5.5034 235.9855 5.5034 226.6375 147.1514 291.3545"></polygon>
            <path d="M146.9497,291.3544 L1.6567,226.6374 C1.1147,226.6374 0.6707,226.1874 0.6707,225.6374 L0.6707,218.1164 C0.6707,217.5664 1.1147,217.1164 1.6567,217.1164 L146.9497,281.8334 C147.4917,281.8334 147.9347,282.2834 147.9347,282.8334 L147.9347,290.3544 C147.9347,290.9044 147.4917,291.3544 146.9497,291.3544" id="Fill-238" fill="#FC5130"></path>
            <polygon id="Fill-240" fill="#E8442E" points="146.9497 281.8334 203.3957 256.7074 203.3957 265.7914 147.1517 291.3544"></polygon>
            <polygon id="Fill-242" fill="#BC2B2B" points="203.3955 265.7909 203.3955 273.1739 147.1515 300.7029 147.1515 291.3539"></polygon>
            <path d="M111.4272,248.8168 L67.3462,228.3188 C66.0272,227.7058 65.4492,226.1238 66.0632,224.8048 L87.4902,215.3008 C88.1032,213.9818 89.6842,213.4038 91.0042,214.0168 L135.0852,234.5148 C136.4042,235.1288 136.9822,236.7108 136.3682,238.0298 L114.9412,247.5338 C114.3282,248.8528 112.7462,249.4308 111.4272,248.8168" id="Fill-244" fill="#DDDDDD"></path>
            <path d="M112.605,249.5961 L67.347,228.3191 C65.897,228.4471 63.748,226.5001 63.619,225.0511 L59.973,183.8741 C59.844,182.4241 60.925,181.1331 62.375,181.0051 L108.491,203.1481 C109.941,203.0201 111.232,204.1011 111.36,205.5511 L115.007,246.7271 C115.135,248.1771 114.054,249.4681 112.605,249.5961" id="Fill-246" fill="#F7F6F5"></path>
            <path d="M89.1143,212.2631 C88.5493,213.8111 86.6053,214.5231 84.7723,213.8541 C82.9403,213.1851 81.9123,211.3881 82.4773,209.8401 C83.0423,208.2921 84.9863,207.5791 86.8193,208.2491 C88.6523,208.9181 89.6793,210.7151 89.1143,212.2631" id="Fill-248" fill="#CECDCC"></path>
            <path d="M88.1421,211.9081 C87.7431,213.0031 86.3681,213.5061 85.0721,213.0331 C83.7761,212.5601 83.0501,211.2891 83.4491,210.1951 C83.8491,209.1001 85.2241,208.5961 86.5191,209.0701 C87.8151,209.5431 88.5421,210.8141 88.1421,211.9081" id="Fill-250" fill="#F7F6F5"></path>
            <path d="M166.5605,254.4032 L175.6645,254.4032 C176.2145,254.4032 176.6645,253.9532 176.6645,253.4032 L176.6645,246.5692 C176.6645,246.0192 176.2145,245.5692 175.6645,245.5692 L166.5605,245.5692 C166.0105,245.5692 165.5605,246.0192 165.5605,246.5692 L165.5605,253.4032 C165.5605,253.9532 166.0105,254.4032 166.5605,254.4032 Z" id="Stroke-252" stroke="#00D8FF" stroke-width="2"></path>
            <path d="M172.1123,260.2636 L186.1953,260.2636 C186.7453,260.2636 187.1953,259.8136 187.1953,259.2636 L187.1953,241.8486 C187.1953,241.2986 186.7453,240.8486 186.1953,240.8486 L172.1123,240.8486 C171.5623,240.8486 171.1123,241.2986 171.1123,241.8486 L171.1123,259.2636 C171.1123,259.8136 171.5623,260.2636 172.1123,260.2636" id="Fill-254" fill="#00D8FF"></path>
            <path d="M179.8682,239.5732 C179.8682,239.5732 181.9142,238.3932 180.2132,236.7372 C179.8172,236.3522 179.2742,235.7322 180.4882,234.2212 C180.4882,234.2212 177.8532,235.0082 179.6332,237.4892 C179.9382,237.9142 180.3332,238.8842 179.8682,239.5732" id="Fill-256" fill="#D5D5D5"></path>
            <path d="M182.8203,234.8876 C182.8203,234.8876 184.5793,233.8726 183.1163,232.4486 C182.7763,232.1166 182.3083,231.5836 183.3533,230.2846 C183.3533,230.2846 181.0873,230.9616 182.6183,233.0946 C182.8813,233.4616 183.2193,234.2956 182.8203,234.8876" id="Fill-258" fill="#D5D5D5"></path>
            <path d="M38.0474,185.4506 C39.0024,184.4306 40.1814,183.8556 41.5584,183.6666 C41.5864,183.6626 41.6104,183.6316 41.6354,183.6136 L42.6764,183.6136 C43.2254,183.8706 43.4054,184.3166 43.3824,184.9026 C43.3434,185.9176 43.4304,186.9356 43.3334,187.9506 C43.1204,190.1656 42.0064,191.7846 40.0724,192.8576 C39.8834,192.9616 39.6924,193.0586 39.5014,193.1596 C39.1474,193.1406 38.8534,193.4326 38.4054,193.3536 C38.5984,193.2526 38.7284,193.1846 38.8584,193.1176 C39.3944,192.8346 39.8304,192.4416 40.1614,191.9336 C40.8514,190.8756 40.8504,189.7356 40.5244,188.5726 C40.1364,187.1906 39.2174,186.2186 38.0474,185.4506" id="Fill-260" fill="#79F2C0"></path>
            <path d="M23.9458,183.6132 C24.4378,183.7562 24.9468,183.8332 25.4248,184.0302 C26.2248,184.3612 26.9388,184.8162 27.5338,185.4502 C27.1458,185.7052 26.7468,185.9472 26.4118,186.2732 C25.3018,187.3542 24.7388,188.6622 24.8018,190.2222 C24.8398,191.1782 25.2498,191.9562 25.9388,192.6082 C26.2608,192.9132 26.6468,193.1162 27.0228,193.3442 C26.6668,193.3802 26.3648,193.2322 26.0548,193.1172 C24.0908,192.2802 22.8538,190.8222 22.3548,188.7482 C22.2288,188.2222 22.1948,187.6822 22.1958,187.1402 C22.1968,186.3832 22.2118,185.6252 22.1908,184.8682 C22.1748,184.2922 22.3708,183.8632 22.9048,183.6132 L23.9458,183.6132 Z" id="Fill-262" fill="#79F2C0"></path>
            <path d="M27.9849,197.9843 C28.0389,197.9873 28.0929,197.9953 28.1469,197.9953 C31.1989,198.0063 34.2519,198.0183 37.3039,198.0283 C37.4009,198.0293 37.4979,198.0153 37.5949,198.0083 C38.2339,198.0563 38.8719,198.0273 39.5099,198.0083 C40.6349,198.0153 41.7609,198.0243 42.8859,198.0283 C43.1609,198.0303 43.4249,198.0493 43.6449,198.2483 C43.8569,198.4393 43.9859,198.6643 43.9859,198.9543 C43.9849,199.6363 44.0039,200.3193 43.9779,201.0003 C43.9239,202.4073 42.9569,203.4913 41.5699,203.7323 C41.4949,203.7453 41.4209,203.7603 41.3469,203.7753 C39.1759,203.7733 37.0059,203.7703 34.8349,203.7703 C34.1549,203.7703 33.4749,203.7793 32.7949,203.7843 C29.9329,203.7823 27.0709,203.7803 24.2099,203.7773 C22.8339,203.6543 21.6899,202.5173 21.5959,201.1243 C21.5509,200.4633 21.5609,199.8043 21.5649,199.1453 C21.5699,198.3733 21.9669,198.0003 22.7399,197.9963 C23.8449,197.9903 24.9489,197.9873 26.0539,197.9843 C26.6979,197.9843 27.3409,197.9843 27.9849,197.9843" id="Fill-264" fill="#F7D647"></path>
            <path d="M24.2095,203.7777 C27.0715,203.7797 29.9335,203.7817 32.7945,203.7837 C32.7935,208.1557 32.7925,212.5277 32.7925,216.9007 C30.6275,216.9037 28.4635,216.9107 26.2995,216.9077 C25.8895,216.9067 25.4985,216.5467 25.4445,216.1137 C25.3435,215.2997 25.2665,214.4837 25.1835,213.6677 C25.0795,212.6367 24.9795,211.6067 24.8785,210.5747 C24.7835,209.5977 24.6915,208.6197 24.5965,207.6427 C24.4975,206.6227 24.3955,205.6027 24.2935,204.5827 C24.2675,204.3147 24.2375,204.0467 24.2095,203.7777" id="Fill-266" fill="#406AF8"></path>
            <path d="M32.7925,216.9003 C32.7925,212.5283 32.7935,208.1563 32.7945,203.7843 C33.4745,203.7793 34.1545,203.7703 34.8345,203.7703 C37.0055,203.7703 39.1755,203.7733 41.3465,203.7753 C41.1605,205.6923 40.9755,207.6093 40.7875,209.5263 C40.6015,211.4223 40.4135,213.3183 40.2265,215.2133 C40.1985,215.4943 40.1765,215.7753 40.1425,216.0533 C40.0845,216.5233 39.6985,216.9033 39.2265,216.9053 C37.0815,216.9113 34.9375,216.9033 32.7925,216.9003" id="Fill-268" fill="#406AF8"></path>
            <path d="M27.9849,197.9843 C27.3409,197.9843 26.6979,197.9843 26.0539,197.9843 C26.0539,196.3613 26.0539,194.7393 26.0549,193.1173 C26.3649,193.2323 26.6669,193.3803 27.0229,193.3443 C26.6469,193.1163 26.2609,192.9133 25.9389,192.6083 C25.2499,191.9563 24.8399,191.1783 24.8019,190.2223 C24.7389,188.6623 25.3019,187.3543 26.4119,186.2733 C26.7469,185.9473 27.1459,185.7053 27.5339,185.4503 C28.0779,185.2423 28.6139,185.0133 29.2019,184.9463 C29.8069,184.8783 30.4139,184.8803 31.0189,184.9173 C31.4069,184.9413 31.7949,185.2873 31.8009,185.6713 C31.8289,187.3063 31.9559,188.9523 31.7569,190.5733 C31.5429,192.3223 30.0319,193.5363 28.2729,193.5463 C28.0089,193.5473 27.9779,193.6313 27.9799,193.8563 C27.9889,195.2323 27.9849,196.6083 27.9849,197.9843" id="Fill-270" fill="#36B37E"></path>
            <path d="M39.5103,198.0082 C38.8713,198.0272 38.2333,198.0562 37.5943,198.0082 C37.5953,196.6122 37.5933,195.2152 37.6013,193.8182 C37.6023,193.6132 37.5603,193.5492 37.3353,193.5472 C35.3213,193.5322 33.7793,191.9992 33.7603,189.9902 C33.7463,188.6362 33.7543,187.2832 33.7593,185.9292 C33.7613,185.2782 34.1363,184.9252 34.7903,184.8972 C35.9173,184.8492 37.0143,184.9562 38.0473,185.4502 C39.2173,186.2182 40.1363,187.1902 40.5243,188.5722 C40.8503,189.7362 40.8513,190.8752 40.1613,191.9342 C39.8303,192.4412 39.3943,192.8352 38.8583,193.1172 C38.7283,193.1852 38.5983,193.2532 38.4063,193.3542 C38.8533,193.4332 39.1473,193.1412 39.5013,193.1592 C39.5023,194.7562 39.5033,196.3532 39.5043,197.9492 C39.4893,197.9612 39.4893,197.9742 39.5043,197.9882 L39.5103,198.0082 Z" id="Fill-272" fill="#36B37E"></path>
            <path d="M39.5039,197.9887 C39.4889,197.9747 39.4889,197.9617 39.5039,197.9487 C39.5039,197.9497 39.5229,197.9677 39.5229,197.9677 L39.5039,197.9887 Z" id="Fill-274" fill="#9EF157"></path>
        </g>
    </g>
</svg>